<svg xmlns="http://www.w3.org/2000/svg" viewBox="0 0 16.26 16.26"><defs><style>.cls-1{opacity:0.25;}.cls-2{fill:#efefef;}</style></defs><title>agenda-inativo</title><g id="Camada_2" data-name="Camada 2"><g id="Camada_1-2" data-name="Camada 1"><g id="calendar" class="cls-1"><g id="Group_67" data-name="Group 67"><g id="Group_66" data-name="Group 66"><circle id="Ellipse_2" data-name="Ellipse 2" class="cls-2" cx="12.26" cy="6.67" r="0.63"/><path id="Path_82" data-name="Path 82" class="cls-2" d="M13.72,1.27h-.83V.64a.64.64,0,0,0-1.27,0v.63H8.73V.64a.63.63,0,0,0-1.27,0v.63H4.6V.64a.63.63,0,0,0-1.27,0v.63H2.54A2.54,2.54,0,0,0,0,3.81v9.91a2.54,2.54,0,0,0,2.54,2.54H7.4A.64.64,0,0,0,7.4,15H2.54a1.27,1.27,0,0,1-1.27-1.27V3.81A1.27,1.27,0,0,1,2.54,2.54h.79v.63a.63.63,0,0,0,1.27,0V2.54H7.46v.63a.63.63,0,0,0,1.27,0V2.54h2.89v.63a.63.63,0,0,0,1.27,0V2.54h.83A1.27,1.27,0,0,1,15,3.81V7.43a.64.64,0,1,0,1.27,0V3.81A2.54,2.54,0,0,0,13.72,1.27Z"/><path id="Path_83" data-name="Path 83" class="cls-2" d="M12.42,8.57a3.84,3.84,0,1,0,3.84,3.84A3.84,3.84,0,0,0,12.42,8.57Zm0,6.42A2.57,2.57,0,1,1,15,12.42h0A2.58,2.58,0,0,1,12.42,15Z"/><path id="Path_84" data-name="Path 84" class="cls-2" d="M13.34,11.78h-.29v-.67a.63.63,0,0,0-1.27,0v1.3a.64.64,0,0,0,.63.64h.92a.63.63,0,0,0,0-1.27Z"/><circle id="Ellipse_3" data-name="Ellipse 3" class="cls-2" cx="9.49" cy="6.67" r="0.63"/><circle id="Ellipse_4" data-name="Ellipse 4" class="cls-2" cx="6.73" cy="9.43" r="0.63"/><circle id="Ellipse_5" data-name="Ellipse 5" class="cls-2" cx="3.97" cy="6.67" r="0.63"/><circle id="Ellipse_6" data-name="Ellipse 6" class="cls-2" cx="3.97" cy="9.43" r="0.63"/><circle id="Ellipse_7" data-name="Ellipse 7" class="cls-2" cx="3.97" cy="12.19" r="0.63"/><circle id="Ellipse_8" data-name="Ellipse 8" class="cls-2" cx="6.73" cy="12.19" r="0.63"/><circle id="Ellipse_9" data-name="Ellipse 9" class="cls-2" cx="6.73" cy="6.67" r="0.63"/></g></g></g></g></g></svg>