<?xml version="1.0" encoding="utf-8"?>
<!-- Generator: Adobe Illustrator 21.0.0, SVG Export Plug-In . SVG Version: 6.00 Build 0)  -->
<svg version="1.1" id="Capa_1" xmlns="http://www.w3.org/2000/svg" xmlns:xlink="http://www.w3.org/1999/xlink" x="0px" y="0px"
	 viewBox="0 0 361.5 361.5" style="enable-background:new 0 0 361.5 361.5;" xml:space="preserve">
<style type="text/css">
	.st0{fill:#707070;}
</style>
<g>
	<path class="st0" d="M361.5,31.1c0-7.1-2.8-13.7-7.7-18.7l-4.6-4.6c-10.3-10.3-27.1-10.3-37.4,0c0,0,0,0,0,0l-22.4,22.4l-3.7-3.7
		c-1.4-1.4-3.3-2.2-5.3-2.2c-2,0-3.9,0.8-5.3,2.2L21.8,279.7c0,0,0,0,0,0c-0.9,0.9-1.5,2-1.9,3.2l-19.6,69c-0.7,2.6,0,5.4,1.9,7.4
		c1.4,1.4,3.3,2.2,5.3,2.2c0.7,0,1.4-0.1,2-0.3l69-19.6c0,0,1.8-0.5,3.3-1.9l232.9-232.9l0.6,0.6c7.2,7.2,7.2,18.8,0,26L223,225.9
		c-2.9,2.9-2.9,7.7,0,10.6c1.5,1.5,3.4,2.2,5.3,2.2s3.8-0.7,5.3-2.2l92.3-92.3c13-13,13-34.2,0-47.2l-0.6-0.6l9.8-9.8
		c1.4-1.4,2.2-3.3,2.2-5.3c0-2-0.8-3.9-2.2-5.3l-3.7-3.7l22.4-22.4C358.8,44.8,361.5,38.1,361.5,31.1z M280.4,42.3l38.8,38.8
		l-4.5,4.5l-38.8-38.8L280.4,42.3z M18.4,343.1l12.4-43.8l31.4,31.4L18.4,343.1z M76.5,323.8L37.7,285l9.8-9.8L86.3,314L76.5,323.8z
		 M96.9,303.4l-38.8-38.8L265.2,57.4l38.8,38.8L96.9,303.4z M343.1,39.2l-22.4,22.4L300,40.7l22.4-22.4c0,0,0,0,0,0
		c4.5-4.5,11.7-4.5,16.2,0l4.6,4.6c2.2,2.2,3.4,5,3.4,8.1S345.3,37,343.1,39.2z"/>
</g>
</svg>
