<svg xmlns="http://www.w3.org/2000/svg" viewBox="0 0 980 980"><defs><style>.cls-1{fill:#377acf;}</style></defs><title>exclamation</title><g id="Camada_2" data-name="Camada 2"><g id="Camada_1-2" data-name="Camada 1"><path class="cls-1" d="M490,0C219.4,0,0,219.4,0,490S219.4,980,490,980,980,760.6,980,490,760.6,0,490,0Zm0,935.5C244,935.5,44.5,736,44.5,490S244,44.5,490,44.5,935.5,244,935.5,490,736,935.5,490,935.5Z"/><path class="cls-1" d="M490,657a55.7,55.7,0,1,0,55.7,55.7A55.78,55.78,0,0,0,490,657"/><path class="cls-1" d="M545.7,211.6H434.3a27.87,27.87,0,0,0-27.8,27.8c0,.7.4,1.3.4,2h-.3l27.8,334.1h.3a27.64,27.64,0,0,0,27.4,25.9h55.7a27.73,27.73,0,0,0,27.5-25.9h.3l27.8-334.1h-.3c0-.7.4-1.3.4-2a27.8,27.8,0,0,0-27.8-27.8"/></g></g></svg>