<svg xmlns="http://www.w3.org/2000/svg" viewBox="0 0 29.24 29.98"><defs><style>.cls-1{fill:#707070;}</style></defs><title>home-inativo</title><g id="Camada_2" data-name="Camada 2"><g id="Camada_1-2" data-name="Camada 1"><g id="Mask_Group_3" data-name="Mask Group 3"><g id="Ativo_2" data-name="Ativo 2"><g id="Camada_1-3" data-name="Camada 1-3"><path id="Path_19" data-name="Path 19" class="cls-1" d="M3.62,16.35a12.64,12.64,0,0,0,.9,9.22C6.73,29.25,10.68,30,14.61,30s7.79-.6,9.77-4.26a16,16,0,0,0,1.26-9.11c-.18-1.54-2.65-1.57-2.45,0a18.69,18.69,0,0,1,0,4.19c-.49,4.61-3.18,6.62-7.7,6.62C11.59,27.55,7.3,27,6,22.66a11,11,0,0,1,0-5.8,1.24,1.24,0,0,0-2.36-.66Z"/><path id="Path_20" data-name="Path 20" class="cls-1" d="M28.68,11.35,15.44.35c-1.19-1.08-3.07.77-1.76,1.88l13.24,11c1.3,1.08,3.18-.77,1.88-1.87Z"/><path id="Path_21" data-name="Path 21" class="cls-1" d="M2.21,13.22l13.24-11c1.41-1.11-.46-3-1.76-1.87L.44,11.35C-.86,12.35,1,14.3,2.21,13.22Z"/></g></g></g></g></g></svg>