<?xml version="1.0" encoding="utf-8"?>
<!-- Svg Vector Icons : http://www.onlinewebfonts.com/icon -->
<!DOCTYPE svg PUBLIC "-//W3C//DTD SVG 1.1//EN" "http://www.w3.org/Graphics/SVG/1.1/DTD/svg11.dtd">
<svg version="1.1" xmlns="http://www.w3.org/2000/svg" xmlns:xlink="http://www.w3.org/1999/xlink" x="0px" y="0px" viewBox="0 0 1000 1000" enable-background="new 0 0 1000 1000" xml:space="preserve">
<metadata> Svg Vector Icons : http://www.onlinewebfonts.com/icon </metadata>
<g><path d="M858.5,34.4c28,26.4,27.7,26,51.1,48.2c23.5,22.2,46.5,81.8,0,128.3C863.2,257.4,302,818.6,302,818.6S44.4,925.7,30.9,931.5c-13.5,5.8-25.3-7.4-19.3-21.2c6-13.8,112.9-259.5,112.9-259.5S695.8,76.5,733.1,39.2C770.4,1.9,830.6,8,858.5,34.4L858.5,34.4z M51.5,891.3l213.5-90l-122.8-119L51.5,891.3L51.5,891.3z M157,655.8l135,131.8l449-449.3l-134-130.5L157,655.8L157,655.8z M627.4,187.4L761.6,318l59.3-59L686.7,128.2L627.4,187.4L627.4,187.4z M706.6,106.7l135.8,130.6c0,0,28.7-28.8,49.2-49.3c20.5-20.5,24.7-58-3-85.2c-23.2-22.8-24.7-24-46.2-44.5c-21.5-20.5-63.7-22-85-1.2C736.1,77.9,706.6,106.7,706.6,106.7L706.6,106.7z"/><path d="M968.2,987.1H31.8c-12,0-21.8-9.8-21.8-21.8l0,0c0-12,9.8-21.8,21.8-21.8h936.4c12,0,21.8,9.8,21.8,21.8l0,0C990,977.3,980.2,987.1,968.2,987.1z"/></g>
</svg>