<svg xmlns="http://www.w3.org/2000/svg" viewBox="0 0 14.64 17.26"><defs><style>.cls-1{fill:#373737;}</style></defs><title>perfil-ativo</title><g id="Camada_2" data-name="Camada 2"><g id="Camada_1-2" data-name="Camada 1"><g id="profiles"><g id="Group_39" data-name="Group 39"><g id="Group_38" data-name="Group 38"><path id="Path_50" data-name="Path 50" class="cls-1" d="M10.92,0H1A1,1,0,0,0,0,1V4.45a.34.34,0,0,0,.67,0V1A.34.34,0,0,1,1,.67h9.91a.34.34,0,0,1,.34.34h0V13.55a.34.34,0,0,1-.34.34H1a.34.34,0,0,1-.34-.34h0V7.29a.34.34,0,0,0-.67,0v6.26a1,1,0,0,0,1,1h9.91a1,1,0,0,0,1-1V1A1,1,0,0,0,10.92,0Z"/></g></g><g id="Group_41" data-name="Group 41"><g id="Group_40" data-name="Group 40"><path id="Path_51" data-name="Path 51" class="cls-1" d="M.57,5.72A.34.34,0,1,0,.67,6,.34.34,0,0,0,.57,5.72Z"/></g></g><g id="Group_43" data-name="Group 43"><g id="Group_42" data-name="Group 42"><path id="Path_52" data-name="Path 52" class="cls-1" d="M1.92,15.34a.34.34,0,1,0,.1.24A.34.34,0,0,0,1.92,15.34Z"/></g></g><g id="Group_45" data-name="Group 45"><g id="Group_44" data-name="Group 44"><path id="Path_53" data-name="Path 53" class="cls-1" d="M12.94,1.35a.34.34,0,0,0-.34.34h0V14.9a.34.34,0,0,1-.34.34H3a.34.34,0,0,0,0,.67h9.24a1,1,0,0,0,1-1V1.69A.34.34,0,0,0,12.94,1.35Z"/></g></g><g id="Group_47" data-name="Group 47"><g id="Group_46" data-name="Group 46"><path id="Path_54" data-name="Path 54" class="cls-1" d="M14.3,2.7A.34.34,0,0,0,14,3h0V16.25a.34.34,0,0,1-.34.34H3a.34.34,0,0,0,0,.67H13.62a1,1,0,0,0,1-1h0V3a.34.34,0,0,0-.34-.34Z"/></g></g><g id="Group_49" data-name="Group 49"><g id="Group_48" data-name="Group 48"><path id="Path_55" data-name="Path 55" class="cls-1" d="M5.46,2.49H2.22a.34.34,0,0,0-.34.34V6.07a.34.34,0,0,0,.34.34H5.46a.34.34,0,0,0,.34-.34V2.83A.34.34,0,0,0,5.46,2.49ZM5.12,5.73H2.56V3.17H5.12Z"/></g></g><g id="Group_51" data-name="Group 51"><g id="Group_50" data-name="Group 50"><path id="Path_56" data-name="Path 56" class="cls-1" d="M4.38,7.93a.34.34,0,0,0-.48,0h0l-.9.9-.42-.42a.34.34,0,1,0-.48.48l.65.65a.34.34,0,0,0,.48,0h0L4.37,8.41a.34.34,0,0,0,0-.48Z"/></g></g><g id="Group_53" data-name="Group 53"><g id="Group_52" data-name="Group 52"><path id="Path_57" data-name="Path 57" class="cls-1" d="M9.9,8.39H6a.34.34,0,0,0,0,.67H9.9a.34.34,0,0,0,0-.67Z"/></g></g><g id="Group_55" data-name="Group 55"><g id="Group_54" data-name="Group 54"><path id="Path_58" data-name="Path 58" class="cls-1" d="M9.71,2.49H7.35a.34.34,0,1,0,0,.67H9.71a.34.34,0,1,0,0-.67Z"/></g></g><g id="Group_57" data-name="Group 57"><g id="Group_56" data-name="Group 56"><path id="Path_59" data-name="Path 59" class="cls-1" d="M9.71,4.11H7.35a.34.34,0,1,0,0,.67H9.71a.34.34,0,1,0,0-.67Z"/></g></g><g id="Group_59" data-name="Group 59"><g id="Group_58" data-name="Group 58"><path id="Path_60" data-name="Path 60" class="cls-1" d="M9.71,5.73H7.35a.34.34,0,0,0,0,.67H9.71a.34.34,0,0,0,0-.67Z"/></g></g><g id="Group_61" data-name="Group 61"><g id="Group_60" data-name="Group 60"><path id="Path_61" data-name="Path 61" class="cls-1" d="M4.38,10.51a.34.34,0,0,0-.48,0h0l-.9.9L2.58,11a.34.34,0,0,0-.48.48l.65.65a.34.34,0,0,0,.48,0h0L4.37,11a.34.34,0,0,0,0-.48Z"/></g></g><g id="Group_63" data-name="Group 63"><g id="Group_62" data-name="Group 62"><path id="Path_62" data-name="Path 62" class="cls-1" d="M9.9,11H6a.34.34,0,1,0,0,.67H9.9a.34.34,0,0,0,0-.67Z"/></g></g></g></g></g></svg>