<svg xmlns="http://www.w3.org/2000/svg" viewBox="0 0 24.41 30"><defs><style>.cls-1{opacity:0.5;}.cls-2{fill:#efefef;}</style></defs><title>perfilMenu-ativo</title><g id="Camada_2" data-name="Camada 2"><g id="Camada_1-2" data-name="Camada 1"><g id="Mask_Group_4" data-name="Mask Group 4" class="cls-1"><g id="Ativo_3" data-name="Ativo 3"><g id="Camada_1-3" data-name="Camada 1"><path id="Path_22" data-name="Path 22" class="cls-2" d="M24.41,28.67c-.63-6.05-5.21-13-11.83-13.53C5.41,14.62.7,22.4,0,28.6c-.17,1.62,2.38,1.62,2.55,0,.56-5.12,5-12.28,11.11-10.64,4.56,1.21,7.76,6.29,8.17,10.81.15,1.62,2.7,1.64,2.55,0Z"/><path id="Path_23" data-name="Path 23" class="cls-2" d="M16.33,6.7C16,12,8.11,12,8.11,6.7s7.93-5.25,8.22,0c0,1.66,2.68,1.66,2.59,0A6.81,6.81,0,0,0,12.22,0a6.79,6.79,0,0,0-6.7,6.7A6.77,6.77,0,0,0,12,13.38a6.79,6.79,0,0,0,6.92-6.66v0C19,5,16.42,5,16.33,6.7Z"/></g></g></g></g></g></svg>