<?xml version="1.0" encoding="utf-8"?>
<!-- Generator: Adobe Illustrator 16.0.2, SVG Export Plug-In . SVG Version: 6.00 Build 0)  -->
<!DOCTYPE svg PUBLIC "-//W3C//DTD SVG 1.1//EN" "http://www.w3.org/Graphics/SVG/1.1/DTD/svg11.dtd">
<svg version="1.1" id="Layer_1" xmlns="http://www.w3.org/2000/svg" xmlns:xlink="http://www.w3.org/1999/xlink" x="0px" y="0px"
	 width="612px" height="792px" viewBox="0 0 612 792" enable-background="new 0 0 612 792" xml:space="preserve">
<title>propostas-inativo</title>
<g id="Camada_2">
	<g id="Camada_1-2">
		<g id="Ativo_0">
			<g id="Camada_1-3">
				<path id="Path_97" fill="#515151" d="M549.813,53.832C497.142,1.29,413.389-3.25,355.346,43.29
					c-0.535,0.798-1.221,1.483-2.019,2.019c-7.859,4.821-14.469,11.43-19.29,19.29l0,0v1.122
					c-17.312,21.581-28.125,47.643-31.178,75.14l-19.065,22.43L75.645,399.477c-26.86,28.371-26.86,72.788,0,101.159l8.299,8.299
					l0,0c3.794,2.898,7.391,6.045,10.767,9.421c1.263,0.609,2.345,1.537,3.14,2.691l0,0l0,0l1.57,1.794
					c1.197,1.222,2.251,2.576,3.14,4.038v1.569l0,0c12.892,11.51,29.597,17.824,46.879,17.72
					c19.048-0.175,37.384-7.27,51.588-19.962l258.168-224.299c27.78-3.058,54.096-14.036,75.813-31.626
					c0.87-1.119,2.035-1.974,3.364-2.467c5.177-2.748,9.574-6.76,12.785-11.664l3.589-4.037c0.343-1.043,0.963-1.974,1.794-2.691
					l0,0C604.785,192.145,601.879,107.657,549.813,53.832z M185.103,505.57c-17.299,16.378-44.383,16.378-61.683,0l-25.346-25.346
					c-16.377-17.3-16.377-44.383,0-61.683L304.43,181.906l15.253-17.495L439.01,283.738L185.103,505.57z M541.29,224.299
					c-0.415,0.942-1.026,1.783-1.795,2.468l0,0l0,0l0,0c-5.079,5.892-10.47,11.507-16.149,16.822
					c-1.049,1.771-2.613,3.181-4.486,4.037c-14.658,11.337-31.803,19.025-50.019,22.43L331.794,134.58
					c3.338-18.373,11.029-35.679,22.431-50.467l0,0c0.774-1.151,1.765-2.141,2.916-2.916l1.121-1.57
					c0.602-1.466,1.719-2.663,3.141-3.364l1.569-1.57l0,0c1.118-1.182,2.639-1.902,4.262-2.019c1.512-2.133,3.414-3.96,5.607-5.383
					l0,0c0.544-0.927,1.316-1.699,2.243-2.243c52.049-38.162,125.18-26.903,163.341,25.146
					C567.494,129.842,568.64,183.445,541.29,224.299z"/>
				<path id="Path_98" fill="#515151" d="M236.019,727.178c-5.669-5.557-14.742-5.557-20.411,0
					c-18.401,16.582-42.535,25.351-67.29,24.448l0,0c-26.81,0.563-52.732-9.611-72-28.262
					c-32.411-35.075-37.456-87.458-12.336-128.074l-4.71-4.711c-5.159-5.158-10.318-10.99-15.925-16.149
					c-15.85,22.152-24.183,48.802-23.775,76.037c-0.658,34.629,12.592,68.076,36.785,92.86
					c24.715,24.158,58.08,37.407,92.636,36.785l0,0c32.125,0.733,63.268-11.096,86.804-32.973
					C241.128,741.589,241.226,732.848,236.019,727.178z"/>
				<path id="Path_99" fill="#515151" d="M522.448,628.037c8.075,5.159,15.926,11.215,22.431,16.822
					c9.61-12.144,16.84-25.994,21.308-40.822c10.647-46.107-18.1-92.116-64.207-102.763c-13.053-3.015-26.631-2.926-39.643,0.258
					c-21.368,6.724-40.719,18.673-56.3,34.767l-42.841,42.841L316.99,625.57l0,0L213.14,730.094l22.43,17.72l102.505-102.505l0,0
					l89.719-89.72c12.105-12.474,27.028-21.858,43.515-27.364c18.86-5.666,39.291,0.209,52.262,15.027
					C553.402,573.757,539.495,605.607,522.448,628.037z"/>
			</g>
		</g>
	</g>
</g>
<circle fill="#377ACF" cx="162" cy="81" r="75.5"/>
</svg>
