<svg xmlns="http://www.w3.org/2000/svg" viewBox="0 0 26.47 35.28"><defs><style>.cls-1{fill:#efefef;stroke:#efefef;}</style></defs><title>propostas-ativo</title><g id="Camada_2" data-name="Camada 2"><g id="Camada_1-2" data-name="Camada 1"><g id="Camada_2-2" data-name="Camada 2"><g id="Camada_1-2-2" data-name="Camada 1-2"><g id="Ativo_0" data-name="Ativo 0"><g id="Camada_1-3" data-name="Camada 1-3"><path id="Path_97" data-name="Path 97" class="cls-1" d="M24.14,2.4a6.51,6.51,0,0,0-8.67-.47.33.33,0,0,1-.09.09,2.61,2.61,0,0,0-.86.86h0v0a6.5,6.5,0,0,0-1.39,3.35l-.85,1L3,17.81a3.28,3.28,0,0,0,0,4.51l.37.37h0a4.8,4.8,0,0,1,.48.42.36.36,0,0,1,.14.12H4l.07.08a1,1,0,0,1,.14.18v.07h0a3.11,3.11,0,0,0,2.09.79,3.5,3.5,0,0,0,2.3-.89l11.51-10a6.5,6.5,0,0,0,3.38-1.41.34.34,0,0,1,.15-.11,1.55,1.55,0,0,0,.57-.52l.16-.18a.27.27,0,0,1,.08-.12h0A6.51,6.51,0,0,0,24.14,2.4ZM7.88,22.54a2,2,0,0,1-2.75,0L4,21.41a2,2,0,0,1,0-2.75L13.2,8.11l.68-.78,5.32,5.32ZM23.76,10a.32.32,0,0,1-.08.11h0a9.71,9.71,0,0,1-.72.75.45.45,0,0,1-.2.18,5.21,5.21,0,0,1-2.23,1L14.42,6a5.21,5.21,0,0,1,1-2.25h0a.48.48,0,0,1,.13-.13l.05-.07a.29.29,0,0,1,.14-.15l.07-.07h0A.29.29,0,0,1,16,3.24.92.92,0,0,1,16.25,3h0a.28.28,0,0,1,.1-.1A5.21,5.21,0,0,1,23.76,10Z"/><path id="Path_98" data-name="Path 98" class="cls-1" d="M10.15,32.42a.65.65,0,0,0-.91,0,4.25,4.25,0,0,1-3,1.09h0A4.48,4.48,0,0,1,3,32.25a4.74,4.74,0,0,1-.55-5.71l-.21-.21c-.23-.23-.46-.49-.71-.72A5.68,5.68,0,0,0,.5,29a5.77,5.77,0,0,0,1.64,4.14,5.76,5.76,0,0,0,4.13,1.64h0a5.5,5.5,0,0,0,3.87-1.47A.65.65,0,0,0,10.15,32.42Z"/><path id="Path_99" data-name="Path 99" class="cls-1" d="M22.92,28a9,9,0,0,1,1,.75,5.48,5.48,0,0,0,1-1.82,3.82,3.82,0,0,0-4.63-4.57,6,6,0,0,0-2.51,1.55l-1.91,1.91-2.06,2.07h0L9.13,32.55l1,.79,4.57-4.57h0l4-4a4.84,4.84,0,0,1,1.94-1.22,2.24,2.24,0,0,1,2.33.67C24.3,25.58,23.68,27,22.92,28Z"/></g></g></g></g></g></g></svg>