<svg xmlns="http://www.w3.org/2000/svg" viewBox="0 0 14.55 14.55"><defs><style>.cls-1{fill:none;stroke:#f6f6f6;opacity:0.25;isolation:isolate;}</style></defs><title>star-inativo_1</title><g id="Camada_2" data-name="Camada 2"><g id="Camada_1-2" data-name="Camada 1"><path id="star" class="cls-1" d="M7.93.93,9.46,4.17a.73.73,0,0,0,.55.42l3.42.52a.77.77,0,0,1,.4,1.3L11.36,8.93a.78.78,0,0,0-.21.68l.58,3.56a.74.74,0,0,1-1.06.8L7.62,12.29a.7.7,0,0,0-.68,0L3.88,14a.74.74,0,0,1-1.06-.8l.58-3.56a.78.78,0,0,0-.21-.68L.72,6.41a.77.77,0,0,1,.4-1.3l3.42-.52a.73.73,0,0,0,.55-.42L6.62.93a.72.72,0,0,1,1.31,0Z"/></g></g></svg>