<svg xmlns="http://www.w3.org/2000/svg" viewBox="0 0 10.77 10.75"><defs><style>.cls-1{fill:#f8a05a;}</style></defs><title>star-orange</title><g id="Camada_2" data-name="Camada 2"><g id="Camada_1-2" data-name="Camada 1"><path id="star-2" class="cls-1" d="M5.9.33,7.12,2.91a.58.58,0,0,0,.44.33l2.72.41a.61.61,0,0,1,.32,1l-2,2a.62.62,0,0,0-.17.54L8.92,10a.59.59,0,0,1-.84.64L5.65,9.35a.56.56,0,0,0-.54,0L2.69,10.69A.59.59,0,0,1,1.85,10l.46-2.83a.62.62,0,0,0-.17-.54l-2-2a.61.61,0,0,1,.32-1l2.71-.41a.58.58,0,0,0,.44-.33L4.86.33a.57.57,0,0,1,1,0Z"/></g></g></svg>