<svg xmlns="http://www.w3.org/2000/svg" viewBox="0 0 10.77 10.72"><defs><style>.cls-1{fill:#3b3b3b;}</style></defs><title>star-gray</title><g id="Camada_2" data-name="Camada 2"><g id="Camada_1-2" data-name="Camada 1"><g id="Camada_2-2" data-name="Camada 2"><g id="Camada_1-2-2" data-name="Camada 1-2"><path id="star-2" class="cls-1" d="M5.91.3,7.13,2.88a.58.58,0,0,0,.44.33l2.72.41a.61.61,0,0,1,.32,1l-2,2a.62.62,0,0,0-.17.54L8.93,10a.59.59,0,0,1-.84.64L5.66,9.32a.56.56,0,0,0-.54,0L2.7,10.66A.59.59,0,0,1,1.86,10l.46-2.83a.62.62,0,0,0-.17-.54l-2-2a.61.61,0,0,1,.32-1l2.71-.41a.58.58,0,0,0,.44-.33L4.87.3a.57.57,0,0,1,1,0Z"/></g></g></g></g></svg>