<svg xmlns="http://www.w3.org/2000/svg" viewBox="0 0 19.56 21.43"><defs><style>.cls-1{fill:#373737;}</style></defs><title>ticket-ativo</title><g id="Camada_2" data-name="Camada 2"><g id="Camada_1-2" data-name="Camada 1"><g id="tickets"><g id="Group_65" data-name="Group 65"><g id="Group_64" data-name="Group 64"><path id="Path_70" data-name="Path 70" class="cls-1" d="M13.09,2.69,6.83,0a.36.36,0,0,0-.47.19h0L0,15.15a.36.36,0,0,0,.19.47h0l3,1.25h0l5.13,4.46a.36.36,0,0,0,.5,0L19.47,9.07a.36.36,0,0,0,0-.5L14.3,4.11a.36.36,0,0,0-.5,0L12,6.25l1.32-3.1A.36.36,0,0,0,13.09,2.69Zm1,2.19,4.6,4L8.52,20.58l-4.59-4,1.3-1.49,3,2.6a.36.36,0,0,0,.47-.54l-3-2.6L14.1,4.88ZM10.46,8,3.34,16.17.83,15.1l.77-1.82,2.11.89A.36.36,0,1,0,4,13.52l-2.12-.89,5-11.8,5.61,2.38Z"/><path id="Path_71" data-name="Path 71" class="cls-1" d="M7.71,2.26a.36.36,0,0,0-.47.19h0l-3.82,9a.36.36,0,1,0,.66.28l3.82-9a.36.36,0,0,0-.19-.47Z"/><path id="Path_72" data-name="Path 72" class="cls-1" d="M8.43,5l.72-1.7A.36.36,0,1,0,8.49,3l-.72,1.7A.36.36,0,1,0,8.43,5Z"/><path id="Path_73" data-name="Path 73" class="cls-1" d="M10.63,4.91a.36.36,0,0,0,.47-.19h0l.23-.54a.36.36,0,1,0-.66-.28l-.23.54a.36.36,0,0,0,.19.47Z"/><path id="Path_74" data-name="Path 74" class="cls-1" d="M9.94,5.65l-.23.54a.36.36,0,1,0,.66.28l.23-.54a.36.36,0,1,0-.66-.28Z"/><path id="Path_75" data-name="Path 75" class="cls-1" d="M6,8.82,4.68,12a.36.36,0,1,0,.66.28L6.67,9.1A.36.36,0,1,0,6,8.82Z"/><path id="Path_76" data-name="Path 76" class="cls-1" d="M9.08,18a.36.36,0,0,0,0,.5l.1.09A.36.36,0,0,0,9.69,18l-.1-.09A.36.36,0,0,0,9.08,18Z"/><path id="Path_77" data-name="Path 77" class="cls-1" d="M7.57,14.41a.36.36,0,0,0,.5,0L14.48,7a.36.36,0,0,0-.54-.47h0L7.53,13.9a.36.36,0,0,0,0,.5Z"/><path id="Path_78" data-name="Path 78" class="cls-1" d="M15,7.42l-1.21,1.4a.36.36,0,0,0,.54.47l1.21-1.4A.36.36,0,1,0,15,7.42Z"/><path id="Path_79" data-name="Path 79" class="cls-1" d="M16.76,9l-.38.44a.36.36,0,0,0,.54.47l.38-.44A.36.36,0,1,0,16.76,9Z"/><path id="Path_80" data-name="Path 80" class="cls-1" d="M15.52,10.41l-.38.44a.36.36,0,0,0,.54.47l.38-.44a.36.36,0,1,0-.54-.47Z"/><path id="Path_81" data-name="Path 81" class="cls-1" d="M10.8,12.22,8.56,14.8a.36.36,0,0,0,.54.47l2.24-2.58a.36.36,0,1,0-.54-.47Z"/></g></g></g></g></g></svg>